<svg xmlns="http://www.w3.org/2000/svg" fill="white" xmlns:xlink="http://www.w3.org/1999/xlink" version="1.1" x="0px" y="0px" viewBox="0 0 64 80" enable-background="new 0 0 64 64" xml:space="preserve"><g><path d="M18.293,45.708C18.488,45.903,18.744,46,19,46s0.512-0.098,0.707-0.293L32,33.414l12.293,12.293   C44.488,45.903,44.744,46,45,46s0.512-0.098,0.707-0.293c0.391-0.391,0.391-1.023,0-1.414L33.414,32l12.293-12.293   c0.391-0.391,0.391-1.023,0-1.414s-1.023-0.391-1.414,0L32,30.586L19.707,18.292c-0.391-0.391-1.023-0.391-1.414,0   s-0.391,1.023,0,1.414L30.586,32L18.293,44.293C17.902,44.684,17.902,45.317,18.293,45.708z"/></g></svg>
